<svg width="270" height="139" viewBox="0 0 270 139" fill="none" xmlns="http://www.w3.org/2000/svg">
<path d="M0.24 56.5201L3.84 41.1601C7.56 36.9601 12.48 34.5601 18.36 34.5601C29.88 34.5601 42.96 43.5601 63.84 43.5601H71.88L73.2 45.2401L69.12 59.2801C66.36 59.4001 63.6 59.6401 60.72 60.0001C60.12 66.8401 61.92 69.8401 67.68 73.2001V94.5601H60.6C48.72 87.7201 48.36 74.2801 52.44 61.6801C29.52 67.5601 8.52 82.5601 8.52 98.2801C8.52 111.96 24.6 117.48 50.64 117.48H75.6V123.48L46.92 138.48C17.4 138.48 4.47035e-08 125.28 4.47035e-08 100.32C4.47035e-08 78.3601 13.44 64.6801 33.24 56.2801C28.56 55.6801 23.88 55.3201 18.96 55.3201C9.96 55.3201 7.08 56.6401 1.44 57.9601L0.24 56.5201ZM47.04 95.5201L35.4 107.16L23.64 95.2801V93.6001L35.4 81.8401L47.04 93.4801V95.5201ZM129.725 111.96L106.685 117.84L106.325 117.24L109.205 113.76C109.805 113.28 110.405 112.8 111.245 112.56L136.085 105.36L136.445 105.84L131.765 110.88C131.165 111.36 130.565 111.84 129.725 111.96ZM134.762 6.36005L141.242 30.3601L135.962 36.4801V45.3601C135.962 61.2001 134.762 74.2801 129.602 88.8001C128.882 89.1601 124.682 91.2001 123.242 91.9201C112.562 97.0801 98.6419 99.8401 86.0419 99.8401C76.0819 99.8401 66.8419 98.1601 60.6019 94.5601V73.2001H67.6819C72.7219 76.2001 82.4419 78.0001 93.6019 78.0001C103.322 78.0001 114.962 76.5601 124.202 72.9601L121.322 18.1201L129.962 6.36005H134.762ZM152.024 65.2801C154.904 74.2801 157.784 75.6001 165.704 75.6001C172.304 75.6001 178.064 74.7601 182.384 73.9201L171.344 47.2801L179.624 33.0001H184.424L196.424 68.1601C198.584 74.5201 201.824 74.8801 209.144 74.8801V91.6801C209.144 95.5201 207.104 97.5601 203.264 97.5601C194.864 97.5601 190.424 93.3601 185.504 81.4801L185.024 80.4001L182.024 91.4401C176.864 95.2801 168.584 98.1601 160.904 98.1601C152.864 98.1601 145.664 94.9201 145.664 83.6401C145.664 80.4001 146.264 72.0001 146.984 65.2801H152.024ZM242.778 18.7201C236.298 16.2001 235.938 12.6001 237.498 9.00006C239.898 3.00006 243.858 5.72205e-05 247.098 5.72205e-05C251.178 5.72205e-05 254.298 4.80006 252.138 13.9201L256.818 15.6001L253.938 22.9201L249.498 21.2401C247.218 25.8001 243.858 30.1201 240.498 32.7601L230.418 33.9601L229.818 32.4001C235.938 28.9201 240.858 25.2001 246.498 20.1601L242.778 18.7201ZM249.858 13.0801C249.258 9.48006 246.018 6.72006 243.018 6.72006C241.458 6.72006 240.138 7.44006 239.178 9.24006L249.858 13.0801ZM214.047 74.7601L220.407 63.0001C229.527 46.5601 238.407 40.2001 246.327 40.2001C259.407 40.2001 269.607 57.6001 264.087 73.8001L263.727 74.7601C261.447 81.3601 257.247 88.6801 253.287 94.5601C241.167 93.1201 232.167 89.8801 222.567 84.6001L220.407 83.4001L214.527 95.2801C212.247 96.4801 208.047 97.5601 203.367 97.5601V80.6401C203.367 76.9201 205.407 74.8801 209.127 74.8801C210.807 74.8801 212.487 74.8801 214.047 74.7601ZM237.087 58.3201C233.367 58.3201 230.007 60.2401 227.367 64.9201C237.807 69.3601 248.007 72.4801 254.607 74.1601C252.927 66.2401 244.767 58.3201 237.087 58.3201Z" fill="black"/>
</svg>
